<svg id="linephoto" xmlns="http://www.w3.org/2000/svg" viewBox="0 0 283.46 283.46"><defs><style>.cls-1,.cls-3{fill:none;stroke:#231815;stroke-linecap:round;stroke-width:4px;}.cls-1{stroke-miterlimit:10;}.cls-2{fill:#231815;}.cls-3{stroke-linejoin:round;}</style></defs><title>linephoto</title><g id="linephoto-1"><path id="eyebrow-2" class="cls-1" d="M145.74,76.2a26.29,26.29,0,0,1,15.29.19"/><path id="eyebrow-1" class="cls-1" d="M91.47,79.49c3.8-3.11,9.64-3.87,14.54-3.72"/><path id="norse" class="cls-1" d="M124.17,103.91c-1.47,6.75-1.34,11.94,1.28,18.61"/><path id="mouth" class="cls-1" d="M122,139.44a16,16,0,0,0,19.61-4.15"/><g id="eye"><path class="cls-2" d="M100.49,98.27c3.22,0,3.22-5,0-5s-3.22,5,0,5Z"/></g><g id="eye-2" data-name="eye"><path class="cls-2" d="M151.67,97.69c3.21,0,3.22-5,0-5s-3.23,5,0,5Z"/></g><path id="_路徑_" data-name="&lt;路徑&gt;" class="cls-1" d="M156.06,39.92A39,39,0,0,0,175.4,76.21"/><path id="_路徑_2" data-name="&lt;路徑&gt;" class="cls-1" d="M135.84,43.45A58.38,58.38,0,0,1,129,68.66"/><path id="_路徑_3" data-name="&lt;路徑&gt;" class="cls-1" d="M120.3,44.14a37.21,37.21,0,0,1-16.79,24.75"/><path id="head" class="cls-1" d="M176.11,62.06c6.67,13.85,5.49,24.84,4.64,36.94"/><path id="ear" class="cls-1" d="M181.62,99.68c1.84-3.17,5.06-4.69,7.56-3.9,3.56,1.12,3.95,6.38,3.78,8.71-.33,4.35-3.48,9.39-7.27,9.31a6.09,6.09,0,0,1-4.07-2.1"/><path id="_路徑_4" data-name="&lt;路徑&gt;" class="cls-1" d="M181.62,113.22a40.47,40.47,0,0,1-.58,12.39c-1.37,7-3.64,10-6.26,9.63"/><path id="_路徑_5" data-name="&lt;路徑&gt;" class="cls-1" d="M163.36,16.1c8.55-1.37,15.36,2.55,22.81,7.36,21,13.57,25.72,45.71,25.59,68.16a223.47,223.47,0,0,0,4,42.25c3,15.65,6.52,28.34,14.13,39.25"/><path id="_路徑_6" data-name="&lt;路徑&gt;" class="cls-1" d="M83.47,187a145.59,145.59,0,0,0,0,14.72c.37,7.12,1.06,9.94,1.53,11.57A31.61,31.61,0,0,0,90.25,224c1.28,1.67,2.48,2.92,4.62,2.92"/><path id="_路徑_7" data-name="&lt;路徑&gt;" class="cls-1" d="M201.18,180a145.56,145.56,0,0,1,0,14.72c-.37,7.12-1.06,9.94-1.53,11.57a31.92,31.92,0,0,1-5.24,10.73c-1.29,1.66-2.49,2.92-4.63,2.92"/><path id="_路徑_8" data-name="&lt;路徑&gt;" class="cls-1" d="M159.26,11.67C130-.19,100,8.44,79.17,34,70.1,45.13,66.41,59.37,63.31,73.34c-2.42,10.87-1.64,39.85-2.37,50.9-.69,10.47-5.87,56-14.83,62.73"/><path id="_路徑_9" data-name="&lt;路徑&gt;" class="cls-1" d="M199.18,109.44c1.73,18.83,10.47,36,15,54.13,4.16,16.71,6.66,36.76-4.39,51.49"/><path id="_路徑_10" data-name="&lt;路徑&gt;" class="cls-1" d="M70.54,92.82a427.23,427.23,0,0,1-3,60.23c-1.5,13.29-4.76,26.38-5.12,39.8-.27,10,1.12,21.06,6.67,29.62a12.13,12.13,0,0,0,3.11,3.46,5.63,5.63,0,0,0,4.44,1"/><path id="scarf" class="cls-1" d="M90.8,154.51a30.81,30.81,0,0,0-5.82,14c-.51,3.56-1.5,10.44,2.71,16.67a19.55,19.55,0,0,0,7.76,6.59"/><path id="scarf-2" data-name="scarf" class="cls-1" d="M162.75,205.69a101.7,101.7,0,0,0,6.84,12.41c4.76,7.36,6.91,8.61,12,15.51,7.46,10.15,14,19.09,10.69,26.36-1.31,2.85-3.65,4.39-6.42,6.2-7,4.58-12.64,3.42-24,7a74.77,74.77,0,0,0-9.84,3.88"/><path id="scarf-3" data-name="scarf" class="cls-1" d="M124.73,222a94.48,94.48,0,0,1,9,13.14c3.72,6.52,5.72,11.82,8.66,19.73,1.81,4.88,4.09,11.48,6.34,19.46"/><path id="scarf-4" data-name="scarf" class="cls-1" d="M122.57,200.93A82.27,82.27,0,0,1,136,190.12c9.9-6.36,15.93-7.21,24.89-12.08a78.87,78.87,0,0,0,20.61-16.37"/><path id="scarf-5" data-name="scarf" class="cls-1" d="M138.87,215.14c5.89,3.61,10.51,8.84,14.25,14.59s5.91,12.59,10.18,17.83"/><path id="scarf-6" data-name="scarf" class="cls-1" d="M102.38,172.25A24.34,24.34,0,0,0,113,182.57"/><path id="_路徑_11" data-name="&lt;路徑&gt;" class="cls-1" d="M58.77,187c-25.46,21.22-43,54.39-41.45,87.34"/><path id="_路徑_12" data-name="&lt;路徑&gt;" class="cls-1" d="M221.16,189.12a80.57,80.57,0,0,1,23,20.39c8.26,10.74,12.06,21.1,14.72,28.54,3.09,8.64,4.51,19.87,7.36,34.16"/><path id="glasses-r" class="cls-3" d="M148.31,82.23,162,83a5.42,5.42,0,0,1,3.62,1.68l4.46,4.68a5.41,5.41,0,0,1,1.49,4l-.45,9.68a5.38,5.38,0,0,1-1.17,3.12l-4.65,5.88a5.42,5.42,0,0,1-4.31,2L146.73,114a5.45,5.45,0,0,1-4.12-2l-4.19-5.07a5.37,5.37,0,0,1-1.23-3l-.76-9.08a5.39,5.39,0,0,1,1.4-4.11L144,84A5.43,5.43,0,0,1,148.31,82.23Z"/><path id="glasses-l" class="cls-3" d="M92.82,84.74l13-.72a5.39,5.39,0,0,1,3.78,1.26l4.63,3.88a5.44,5.44,0,0,1,1.93,3.8l.6,9.14a5.41,5.41,0,0,1-.8,3.23l-3.73,6a5.39,5.39,0,0,1-4,2.53l-13.46,1.38a5.4,5.4,0,0,1-4.32-1.49L86,109.44a5.39,5.39,0,0,1-1.55-2.84l-1.68-8.44a5.42,5.42,0,0,1,.93-4.24l5-7A5.43,5.43,0,0,1,92.82,84.74Z"/><line id="glasses" class="cls-3" x1="118.52" y1="96.09" x2="133.93" y2="96.09"/><path id="head-2" data-name="head" class="cls-1" d="M100.43,44.65c-2.37,7.86-6,14.3-13,23.32-3.4,4.42-6.87,12.94-8,26.34-1.78,20.5-1.16,37.51,5.62,49.41,1.88,3.29,10.27,16.12,29.88,21.61,16.23,4.55,27-.1,32.17-1.49,13.81-3.7,20.8-14.31,30.91-24.61.59-.61,3-1.76,6.16-2,4.15-.27,9.28,1.44,10.26,4.49.61,1.93-1,2.49-1.58,5.62-.65,3.8,1.36,5.51,4.34,13.85,1.26,3.53,1.89,5.3,2,6.36.51,6.82-6.62,12.65-11.05,16.09-18.73,14.56-36.63,23.26-51.28,29.57-7.79,3.35-15.57,6.42-24.85,4.86-2.15-.35-11-1.84-13-7.11-.91-2.42.37-3.69,0-10.1-.27-4.61-1-5.3-.79-7.11.68-5.51,8.47-8.42,15.38-11.61,6.31-2.9,17.07-11.08,29.94-17.26"/></g></svg>